<?xml version="1.0" encoding="UTF-8" ?>
<!DOCTYPE svg PUBLIC "-//W3C//DTD SVG 1.1//EN" "http://www.w3.org/Graphics/SVG/1.1/DTD/svg11.dtd">
<svg width="53pt" height="53pt" viewBox="0 0 53 53" version="1.1" xmlns="http://www.w3.org/2000/svg">
<g id="#ffffffff">
<path fill="#ffffff" opacity="1.00" d=" M 22.43 7.72 C 31.94 4.85 42.85 10.76 45.90 20.16 C 49.00 28.43 45.42 38.40 37.92 42.99 C 32.06 46.77 24.14 47.01 18.07 43.57 C 11.18 39.87 7.02 31.73 8.17 23.97 C 9.05 16.31 14.96 9.60 22.43 7.72 M 18.63 34.98 C 19.52 34.99 21.30 34.99 22.19 35.00 C 22.50 33.72 22.82 32.45 23.14 31.18 C 25.80 30.97 28.46 30.96 31.13 31.03 C 31.40 32.02 31.69 33.01 32.00 33.99 C 32.50 35.63 34.68 34.73 35.92 34.99 C 33.66 29.01 31.71 22.91 29.37 16.96 C 27.86 16.98 26.36 17.00 24.85 17.01 C 22.80 23.01 20.82 29.03 18.63 34.98 Z" />
<path fill="#ffffff" opacity="1.00" d=" M 24.34 27.99 C 25.17 25.24 26.03 22.50 27.10 19.83 C 28.22 22.49 29.17 25.21 29.98 27.98 C 28.10 27.99 26.22 28.00 24.34 27.99 Z" />
</g>
<g id="#0f141eff">
<path fill="#0f141e" opacity="1.00" d=" M 7.65 15.78 C 10.88 9.09 17.90 5.11 25.01 3.86 C 29.84 3.19 34.64 4.81 38.87 7.01 C 48.43 12.34 52.69 25.17 48.30 35.19 C 47.14 38.75 44.07 41.02 41.72 43.74 C 38.75 46.85 34.34 47.76 30.37 48.92 C 28.49 49.11 26.58 49.11 24.70 48.91 C 20.09 47.95 15.44 46.33 11.98 42.99 C 4.77 36.21 2.75 24.46 7.65 15.78 M 22.43 7.72 C 14.96 9.60 9.05 16.31 8.17 23.97 C 7.02 31.73 11.18 39.87 18.07 43.57 C 24.14 47.01 32.06 46.77 37.92 42.99 C 45.42 38.40 49.00 28.43 45.90 20.16 C 42.85 10.76 31.94 4.85 22.43 7.72 Z" />
<path fill="#0f141e" opacity="1.00" d=" M 18.63 34.98 C 20.82 29.03 22.80 23.01 24.85 17.01 C 26.36 17.00 27.86 16.98 29.37 16.96 C 31.71 22.91 33.66 29.01 35.92 34.99 C 34.68 34.73 32.50 35.63 32.00 33.99 C 31.69 33.01 31.40 32.02 31.13 31.03 C 28.46 30.96 25.80 30.97 23.14 31.18 C 22.82 32.45 22.50 33.72 22.19 35.00 C 21.30 34.99 19.52 34.99 18.63 34.98 M 24.34 27.99 C 26.22 28.00 28.10 27.99 29.98 27.98 C 29.17 25.21 28.22 22.49 27.10 19.83 C 26.03 22.50 25.17 25.24 24.34 27.99 Z" />
</g>
</svg>
